<svg xmlns="http://www.w3.org/2000/svg" width="100%" viewBox="0 0 300 540" preserveAspectRatio="xMidYMid meet">
    <rect x="0" y="0" width="300" height="540" fill="#ffffff" />
    
        <line x1="60" y1="46" x2="240" y2="46" stroke="#999" stroke-width="0.5" />
        <text x="150" y="42" text-anchor="middle" font-size="9" fill="#999">6 m</text>
      
        <line x1="60" y1="46" x2="60" y2="346" stroke="#999" stroke-width="0.5" />
        <text x="60" y="192" text-anchor="middle" font-size="9" fill="#999">10 m</text>
      
        <line x1="60" y1="131.71428571428572" x2="240" y2="131.71428571428572" stroke="#999" stroke-width="0.5" />
        <text x="150" y="127.71428571428572" text-anchor="middle" font-size="9" fill="#999">6.0 m</text>
      
        <line x1="60" y1="192.93877551020407" x2="168" y2="192.93877551020407" stroke="#999" stroke-width="0.5" />
        <text x="114" y="188.93877551020407" text-anchor="middle" font-size="9" fill="#999">3.6 m</text>
      
        <line x1="168" y1="192.93877551020407" x2="240" y2="192.93877551020407" stroke="#999" stroke-width="0.5" />
        <text x="204" y="188.93877551020407" text-anchor="middle" font-size="9" fill="#999">2.4 m</text>
      
        <line x1="168" y1="294.9795918367347" x2="240" y2="294.9795918367347" stroke="#999" stroke-width="0.5" />
        <text x="204" y="290.9795918367347" text-anchor="middle" font-size="9" fill="#999">2.4 m</text>
      
    
        <rect x="60" y="60" width="180" height="85.71428571428572" fill="#fafafa" stroke="none" />
        <text x="150" y="96.85714285714286" text-anchor="middle" font-size="12" font-weight="600">Phòng khách</text>
        <text x="150" y="112.85714285714286" text-anchor="middle" font-size="10" fill="#666">17.1 m²</text>
      
        <rect x="60" y="145.71428571428572" width="180" height="61.224489795918345" fill="#fafafa" stroke="none" />
        <text x="150" y="170.32653061224488" text-anchor="middle" font-size="12" font-weight="600">Bếp</text>
        <text x="150" y="186.32653061224488" text-anchor="middle" font-size="10" fill="#666">12.2 m²</text>
      
        <rect x="60" y="206.93877551020407" width="108" height="153.06122448979593" fill="#fafafa" stroke="none" />
        <text x="114" y="277.46938775510205" text-anchor="middle" font-size="12" font-weight="600">Phòng ngủ</text>
        <text x="114" y="293.46938775510205" text-anchor="middle" font-size="10" fill="#666">18.4 m²</text>
      
        <rect x="168" y="206.93877551020407" width="72" height="102.04081632653063" fill="#fafafa" stroke="none" />
        <text x="204" y="251.9591836734694" text-anchor="middle" font-size="12" font-weight="600">Phòng ngủ 2</text>
        <text x="204" y="267.9591836734694" text-anchor="middle" font-size="10" fill="#666">8.2 m²</text>
      
        <rect x="168" y="308.9795918367347" width="72" height="51.0204081632653" fill="#fafafa" stroke="none" />
        <text x="204" y="328.48979591836735" text-anchor="middle" font-size="12" font-weight="600">WC</text>
        <text x="204" y="344.48979591836735" text-anchor="middle" font-size="10" fill="#666">4.1 m²</text>
      
    <line x1="60" y1="145.71428571428572" x2="136.5" y2="145.71428571428572" stroke="#6b7280" stroke-width="1.5" /><line x1="163.5" y1="145.71428571428572" x2="240" y2="145.71428571428572" stroke="#6b7280" stroke-width="1.5" /><line x1="60" y1="206.93877551020407" x2="100.5" y2="206.93877551020407" stroke="#6b7280" stroke-width="1.5" /><line x1="127.5" y1="206.93877551020407" x2="168" y2="206.93877551020407" stroke="#6b7280" stroke-width="1.5" /><line x1="168" y1="206.93877551020407" x2="190.5" y2="206.93877551020407" stroke="#6b7280" stroke-width="1.5" /><line x1="217.5" y1="206.93877551020407" x2="240" y2="206.93877551020407" stroke="#6b7280" stroke-width="1.5" /><line x1="168" y1="206.93877551020407" x2="168" y2="308.9795918367347" stroke="#6b7280" stroke-width="1.5" /><line x1="168" y1="308.9795918367347" x2="168" y2="360" stroke="#6b7280" stroke-width="1.5" /><line x1="168" y1="308.9795918367347" x2="190.5" y2="308.9795918367347" stroke="#6b7280" stroke-width="1.5" /><line x1="217.5" y1="308.9795918367347" x2="240" y2="308.9795918367347" stroke="#6b7280" stroke-width="1.5" /><line x1="60" y1="60" x2="136.5" y2="60" stroke="#111827" stroke-width="3" /><line x1="163.5" y1="60" x2="240" y2="60" stroke="#111827" stroke-width="3" /><line x1="240" y1="60" x2="240" y2="360" stroke="#111827" stroke-width="3" /><line x1="240" y1="360" x2="60" y2="360" stroke="#111827" stroke-width="3" /><line x1="60" y1="360" x2="60" y2="60" stroke="#111827" stroke-width="3" />
    
    <line x1="136.5" y1="60" x2="136.5" y2="87" stroke="#374151" stroke-width="1.5" />
    <path d="M 136.5 87 A 27 27 0 0 1 163.5 60" fill="none" stroke="#9ca3af" stroke-width="1" stroke-dasharray="2,2" />
  
    <line x1="136.5" y1="145.71428571428572" x2="136.5" y2="172.7142857142857" stroke="#374151" stroke-width="1.5" />
    <path d="M 136.5 172.7142857142857 A 27 27 0 0 1 163.5 145.71428571428572" fill="none" stroke="#9ca3af" stroke-width="1" stroke-dasharray="2,2" />
  
    <line x1="100.5" y1="206.93877551020407" x2="100.5" y2="233.93877551020407" stroke="#374151" stroke-width="1.5" />
    <path d="M 100.5 233.93877551020407 A 27 27 0 0 1 127.5 206.93877551020407" fill="none" stroke="#9ca3af" stroke-width="1" stroke-dasharray="2,2" />
  
    <line x1="190.5" y1="206.93877551020407" x2="190.5" y2="233.93877551020407" stroke="#374151" stroke-width="1.5" />
    <path d="M 190.5 233.93877551020407 A 27 27 0 0 1 217.5 206.93877551020407" fill="none" stroke="#9ca3af" stroke-width="1" stroke-dasharray="2,2" />
  
    <line x1="190.5" y1="308.9795918367347" x2="190.5" y2="335.9795918367347" stroke="#374151" stroke-width="1.5" />
    <path d="M 190.5 335.9795918367347 A 27 27 0 0 1 217.5 308.9795918367347" fill="none" stroke="#9ca3af" stroke-width="1" stroke-dasharray="2,2" />
  
    <text x="60" y="450" font-size="10" fill="#b45309">⚠ Phòng "living" (living) tỷ lệ khung hình 2.10:1 — ngoài khoảng ưu tiên (tối đa 1.8:1), vẫn trong giới hạn chấp nhận được.</text><text x="60" y="464" font-size="10" fill="#b45309">⚠ Phòng "kitchen" (kitchen) tỷ lệ khung hình 2.94:1 — ngoài khoảng ưu tiên (tối đa 2.2:1), vẫn trong giới hạn chấp nhận được.</text>
    <text x="60" y="500" font-size="11" font-weight="600">Simple House Demo — Mặt bằng tầng (Concept)</text>
    <text x="60" y="516" font-size="9" fill="#666">NOT TO SCALE — Lập ngày 19/7/2026</text>
    <text x="60" y="532" font-size="9" fill="#b91c1c">Bản vẽ khái niệm sơ bộ — dựa trên thông tin và giả định đã cung cấp, cần kiến trúc sư/kỹ sư kiểm tra lại, KHÔNG dùng để thi công trực tiếp.</text>
  </svg>