<svg xmlns="http://www.w3.org/2000/svg" width="100%" viewBox="0 0 595 842" preserveAspectRatio="xMidYMid meet">
    <rect x="0" y="0" width="595" height="842" fill="#ffffff" />
    
    <text x="24" font-size="12" font-weight="700"><tspan x="24" y="36.32">Simple House Demo — Tầng trệt</tspan></text>
    <text x="24" y="58" font-size="9" fill="#666">NOT TO SCALE — Mặt bằng tầng (Concept) — Lập ngày 20/7/2026</text>
  
    
      <line x1="163.10000000000002" y1="88" x2="163.10000000000002" y2="114" stroke="#bbb" stroke-width="0.5" />
      <line x1="473.9" y1="88" x2="473.9" y2="114" stroke="#bbb" stroke-width="0.5" />
      <line x1="163.10000000000002" y1="88" x2="473.9" y2="88" stroke="#666" stroke-width="0.6" />
      <text x="318.5" y="84" text-anchor="middle" font-size="9" fill="#333">6 m</text>
    
      <line x1="56" y1="114" x2="163.10000000000002" y2="114" stroke="#bbb" stroke-width="0.5" />
      <line x1="56" y1="632" x2="163.10000000000002" y2="632" stroke="#bbb" stroke-width="0.5" />
      <line x1="56" y1="114" x2="56" y2="632" stroke="#666" stroke-width="0.6" />
      <text x="0" y="0" text-anchor="middle" font-size="9" fill="#333" transform="translate(51, 373) rotate(-90)">10 m</text>
    
    
        <line x1="163.10000000000002" y1="254" x2="292.6" y2="254" stroke="#ccc" stroke-width="0.5" />
        <text x="227.85000000000002" y="251" text-anchor="middle" font-size="8" fill="#999">2.5 m</text>
      
        <line x1="163.10000000000002" y1="439" x2="292.6" y2="439" stroke="#ccc" stroke-width="0.5" />
        <text x="227.85000000000002" y="436" text-anchor="middle" font-size="8" fill="#999">2.5 m</text>
      
        <line x1="344.4" y1="254" x2="473.9" y2="254" stroke="#ccc" stroke-width="0.5" />
        <text x="409.15" y="251" text-anchor="middle" font-size="8" fill="#999">2.5 m</text>
      
        <line x1="344.4" y1="500.66666666666663" x2="473.9" y2="500.66666666666663" stroke="#ccc" stroke-width="0.5" />
        <text x="409.15" y="497.66666666666663" text-anchor="middle" font-size="8" fill="#999">2.5 m</text>
      
        <line x1="292.6" y1="254" x2="344.4" y2="254" stroke="#ccc" stroke-width="0.5" />
        <text x="318.5" y="251" text-anchor="middle" font-size="8" fill="#999">1.0 m</text>
      
    
        <rect x="163.10000000000002" y="114" width="310.79999999999995" height="148" fill="#fafafa" stroke="none" />
        
        <text x="318.5" font-size="12" text-anchor="middle" font-weight="600"><tspan x="318.5" y="174.56000000000003">Phòng khách</tspan></text>
        <text x="318.5" y="220.56" text-anchor="middle" font-size="9" fill="#666">17.1 m²</text>
      
        <rect x="163.10000000000002" y="262" width="129.5" height="185" fill="#fafafa" stroke="none" />
        
        <text x="227.85000000000002" font-size="12" text-anchor="middle" font-weight="600"><tspan x="227.85000000000002" y="336.62">Bếp</tspan></text>
        <text x="227.85000000000002" y="395.2" text-anchor="middle" font-size="9" fill="#666">8.9 m²</text>
      
        <rect x="163.10000000000002" y="447" width="129.5" height="185" fill="#fafafa" stroke="none" />
        
        <text x="227.85000000000002" font-size="12" text-anchor="middle" font-weight="600"><tspan x="227.85000000000002" y="521.62">Phòng ngủ 2</tspan></text>
        <text x="227.85000000000002" y="580.2" text-anchor="middle" font-size="9" fill="#666">8.9 m²</text>
      
        <rect x="344.4" y="262" width="129.5" height="246.66666666666663" fill="#fafafa" stroke="none" />
        
        <text x="409.15" font-size="12" text-anchor="middle" font-weight="600"><tspan x="409.15" y="360.05333333333334">Phòng ngủ 1</tspan></text>
        <text x="409.15" y="439.59999999999997" text-anchor="middle" font-size="9" fill="#666">11.9 m²</text>
      
        <rect x="344.4" y="508.66666666666663" width="129.5" height="123.33333333333337" fill="#fafafa" stroke="none" />
        
        <text x="409.15" font-size="12" text-anchor="middle" font-weight="600"><tspan x="409.15" y="559.8533333333332">WC 1</tspan></text>
        <text x="409.15" y="597.4666666666667" text-anchor="middle" font-size="9" fill="#666">6.0 m²</text>
      
        <rect x="292.6" y="262" width="51.799999999999955" height="370" fill="#fafafa" stroke="none" />
        
        <text x="318.5" font-size="12" text-anchor="middle" font-weight="600"><tspan x="318.5" y="392.52">Sảnh /</tspan><tspan x="318.5" y="406.91999999999996">Hành</tspan><tspan x="318.5" y="421.32">lang</tspan></text>
        <text x="318.5" y="528.4" text-anchor="middle" font-size="9" fill="#666">7.1 m²</text>
      
    <line x1="163.10000000000002" y1="262" x2="292.6" y2="262" stroke="#6b7280" stroke-width="1.5" /><line x1="344.4" y1="262" x2="473.9" y2="262" stroke="#6b7280" stroke-width="1.5" /><line x1="292.6" y1="262" x2="295.19" y2="262" stroke="#6b7280" stroke-width="1.5" /><line x1="341.81000000000006" y1="262" x2="344.4" y2="262" stroke="#6b7280" stroke-width="1.5" /><line x1="163.10000000000002" y1="447" x2="292.6" y2="447" stroke="#6b7280" stroke-width="1.5" /><line x1="292.6" y1="262" x2="292.6" y2="331.19" stroke="#6b7280" stroke-width="1.5" /><line x1="292.6" y1="377.81" x2="292.6" y2="447" stroke="#6b7280" stroke-width="1.5" /><line x1="292.6" y1="447" x2="292.6" y2="516.19" stroke="#6b7280" stroke-width="1.5" /><line x1="292.6" y1="562.81" x2="292.6" y2="632" stroke="#6b7280" stroke-width="1.5" /><line x1="344.4" y1="508.66666666666663" x2="473.9" y2="508.66666666666663" stroke="#6b7280" stroke-width="1.5" /><line x1="344.4" y1="262" x2="344.4" y2="362.0233333333333" stroke="#6b7280" stroke-width="1.5" /><line x1="344.4" y1="408.6433333333333" x2="344.4" y2="508.66666666666663" stroke="#6b7280" stroke-width="1.5" /><line x1="344.4" y1="508.66666666666663" x2="344.4" y2="547.0233333333333" stroke="#6b7280" stroke-width="1.5" /><line x1="344.4" y1="593.6433333333333" x2="344.4" y2="632" stroke="#6b7280" stroke-width="1.5" /><line x1="163.10000000000002" y1="114" x2="209.72000000000003" y2="114" stroke="#111827" stroke-width="3" /><line x1="271.88" y1="114" x2="295.19" y2="114" stroke="#111827" stroke-width="3" /><line x1="341.81000000000006" y1="114" x2="473.9" y2="114" stroke="#111827" stroke-width="3" /><line x1="473.9" y1="114" x2="473.9" y2="354.25333333333333" stroke="#111827" stroke-width="3" /><line x1="473.9" y1="416.41333333333324" x2="473.9" y2="632" stroke="#111827" stroke-width="3" /><line x1="473.9" y1="632" x2="163.10000000000002" y2="632" stroke="#111827" stroke-width="3" /><line x1="163.10000000000002" y1="632" x2="163.10000000000002" y2="570.5799999999999" stroke="#111827" stroke-width="3" /><line x1="163.10000000000002" y1="508.41999999999996" x2="163.10000000000002" y2="385.5799999999999" stroke="#111827" stroke-width="3" /><line x1="163.10000000000002" y1="323.41999999999996" x2="163.10000000000002" y2="114" stroke="#111827" stroke-width="3" />
    
    <line x1="295.19" y1="114" x2="295.19" y2="160.62" stroke="#374151" stroke-width="1.5" />
    <path d="M 295.19 160.62 A 46.62 46.62 0 0 1 341.81000000000006 114" fill="none" stroke="#9ca3af" stroke-width="1" stroke-dasharray="2,2" />
  
    <line x1="295.19" y1="262" x2="295.19" y2="308.62" stroke="#374151" stroke-width="1.5" />
    <path d="M 295.19 308.62 A 46.62 46.62 0 0 1 341.81000000000006 262" fill="none" stroke="#9ca3af" stroke-width="1" stroke-dasharray="2,2" />
  
    <line x1="292.6" y1="331.19" x2="245.98000000000002" y2="331.19" stroke="#374151" stroke-width="1.5" />
    <path d="M 245.98000000000002 331.19 A 46.62 46.62 0 0 1 292.6 377.81" fill="none" stroke="#9ca3af" stroke-width="1" stroke-dasharray="2,2" />
  
    <line x1="344.4" y1="362.0233333333333" x2="297.78000000000003" y2="362.0233333333333" stroke="#374151" stroke-width="1.5" />
    <path d="M 297.78000000000003 362.0233333333333 A 46.62 46.62 0 0 1 344.4 408.6433333333333" fill="none" stroke="#9ca3af" stroke-width="1" stroke-dasharray="2,2" />
  
    <line x1="292.6" y1="516.19" x2="245.98000000000002" y2="516.19" stroke="#374151" stroke-width="1.5" />
    <path d="M 245.98000000000002 516.19 A 46.62 46.62 0 0 1 292.6 562.81" fill="none" stroke="#9ca3af" stroke-width="1" stroke-dasharray="2,2" />
  
    <line x1="344.4" y1="547.0233333333333" x2="297.78000000000003" y2="547.0233333333333" stroke="#374151" stroke-width="1.5" />
    <path d="M 297.78000000000003 547.0233333333333 A 46.62 46.62 0 0 1 344.4 593.6433333333333" fill="none" stroke="#9ca3af" stroke-width="1" stroke-dasharray="2,2" />
  
    <line x1="209.72000000000003" y1="114" x2="271.88" y2="114" stroke="#2563eb" stroke-width="2.5" /><line x1="163.10000000000002" y1="385.5799999999999" x2="163.10000000000002" y2="323.41999999999996" stroke="#2563eb" stroke-width="2.5" /><line x1="163.10000000000002" y1="570.5799999999999" x2="163.10000000000002" y2="508.41999999999996" stroke="#2563eb" stroke-width="2.5" /><line x1="473.9" y1="354.25333333333333" x2="473.9" y2="416.41333333333324" stroke="#2563eb" stroke-width="2.5" />
    <text x="24" y="648" font-size="9" fill="#b45309">CẢNH BÁO: [Tầng 0] Phòng "living" (living) tỷ lệ khung hình 2.10:1 — ngoài khoảng ưu tiên (tối đa 1.8:1), vẫn</text><text x="24" y="660" font-size="9" fill="#b45309">trong giới hạn chấp nhận được.</text><text x="24" y="672" font-size="9" fill="#b45309">CẢNH BÁO: [Tầng 0] Phòng "living" (living) diện tích 17.14m² — nhỏ hơn khoảng ưu tiên (tối thiểu 18m²), vẫn</text><text x="24" y="684" font-size="9" fill="#b45309">trong giới hạn chấp nhận được.</text><text x="24" y="696" font-size="9" fill="#b45309">CẢNH BÁO: [Tầng 0] Phòng "kitchen" (kitchen) diện tích 8.93m² — nhỏ hơn khoảng ưu tiên (tối thiểu 10m²), vẫn</text><text x="24" y="708" font-size="9" fill="#b45309">trong giới hạn chấp nhận được.</text><text x="24" y="720" font-size="9" fill="#b45309">CẢNH BÁO: [Tầng 0] Phòng "bedroom-2" (bedroom) diện tích 8.93m² — nhỏ hơn khoảng ưu tiên (tối thiểu 9m²), vẫn</text><text x="24" y="732" font-size="9" fill="#b45309">trong giới hạn chấp nhận được.</text><text x="24" y="744" font-size="9" fill="#b45309">CẢNH BÁO: [Tầng 0] Phòng "bedroom-1" (bedroom) tỷ lệ khung hình 1.90:1 — ngoài khoảng ưu tiên (tối đa 1.5:1),</text><text x="24" y="756" font-size="9" fill="#b45309">vẫn trong giới hạn chấp nhận được.</text>
    <text x="24" y="772" font-size="8" fill="#b91c1c">Bản vẽ khái niệm sơ bộ — dựa trên thông tin và giả định đã cung cấp, cần kiến trúc sư/kỹ sư kiểm tra lại, KHÔNG dùng để thi</text><text x="24" y="783" font-size="8" fill="#b91c1c">công trực tiếp.</text>
  </svg>