<svg xmlns="http://www.w3.org/2000/svg" width="100%" viewBox="0 0 595 842" preserveAspectRatio="xMidYMid meet">
    <rect x="0" y="0" width="595" height="842" fill="#ffffff" />
    
    <text x="24" font-size="12" font-weight="700"><tspan x="24" y="36.32">Townhouse Demo — Tầng 2 (Tầng trên cùng)</tspan></text>
    <text x="24" y="58" font-size="9" fill="#666">NOT TO SCALE — Mặt bằng tầng (Concept) — Lập ngày 20/7/2026</text>
  
    
      <line x1="237.5625" y1="88" x2="237.5625" y2="114" stroke="#bbb" stroke-width="0.5" />
      <line x1="399.4375" y1="88" x2="399.4375" y2="114" stroke="#bbb" stroke-width="0.5" />
      <line x1="237.5625" y1="88" x2="399.4375" y2="88" stroke="#666" stroke-width="0.6" />
      <text x="318.5" y="84" text-anchor="middle" font-size="9" fill="#333">5 m</text>
    
      <line x1="56" y1="114" x2="237.5625" y2="114" stroke="#bbb" stroke-width="0.5" />
      <line x1="56" y1="632" x2="237.5625" y2="632" stroke="#bbb" stroke-width="0.5" />
      <line x1="56" y1="114" x2="56" y2="632" stroke="#666" stroke-width="0.6" />
      <text x="0" y="0" text-anchor="middle" font-size="9" fill="#333" transform="translate(51, 373) rotate(-90)">16 m</text>
    
    
        <line x1="237.5625" y1="106" x2="367.0625" y2="106" stroke="#ccc" stroke-width="0.5" />
        <text x="302.3125" y="103" text-anchor="middle" font-size="8" fill="#999">4.0 m</text>
      
        <line x1="237.5625" y1="217" x2="367.0625" y2="217" stroke="#ccc" stroke-width="0.5" />
        <text x="302.3125" y="214" text-anchor="middle" font-size="8" fill="#999">4.0 m</text>
      
        <line x1="237.5625" y1="328" x2="367.0625" y2="328" stroke="#ccc" stroke-width="0.5" />
        <text x="302.3125" y="325" text-anchor="middle" font-size="8" fill="#999">4.0 m</text>
      
        <line x1="237.5625" y1="379.8" x2="367.0625" y2="379.8" stroke="#ccc" stroke-width="0.5" />
        <text x="302.3125" y="376.8" text-anchor="middle" font-size="8" fill="#999">4.0 m</text>
      
        <line x1="237.5625" y1="457.5" x2="367.0625" y2="457.5" stroke="#ccc" stroke-width="0.5" />
        <text x="302.3125" y="454.5" text-anchor="middle" font-size="8" fill="#999">4.0 m</text>
      
        <line x1="367.0625" y1="106" x2="399.4375" y2="106" stroke="#ccc" stroke-width="0.5" />
        <text x="383.25" y="103" text-anchor="middle" font-size="8" fill="#999">1.0 m</text>
      
        <line x1="334.6875" y1="494.5" x2="399.4375" y2="494.5" stroke="#ccc" stroke-width="0.5" />
        <text x="367.0625" y="491.5" text-anchor="middle" font-size="8" fill="#999">2.0 m</text>
      
        <line x1="237.5625" y1="494.5" x2="334.6875" y2="494.5" stroke="#ccc" stroke-width="0.5" />
        <text x="286.125" y="491.5" text-anchor="middle" font-size="8" fill="#999">3.0 m</text>
      
    
        <rect x="237.5625" y="114" width="129.5" height="111" fill="#fafafa" stroke="none" />
        
        <text x="302.3125" font-size="12" text-anchor="middle" font-weight="600"><tspan x="302.3125" y="160.50000000000003">Phòng ngủ 3</tspan></text>
        <text x="302.3125" y="193.92000000000002" text-anchor="middle" font-size="9" fill="#666">13.7 m²</text>
      
        <rect x="237.5625" y="225" width="129.5" height="111" fill="#fafafa" stroke="none" />
        
        <text x="302.3125" font-size="12" text-anchor="middle" font-weight="600"><tspan x="302.3125" y="271.5">Phòng ngủ 4</tspan></text>
        <text x="302.3125" y="304.92" text-anchor="middle" font-size="9" fill="#666">13.7 m²</text>
      
        <rect x="237.5625" y="336" width="129.5" height="51.80000000000001" fill="#fafafa" stroke="none" />
        
        <text x="302.3125" font-size="12" text-anchor="middle" font-weight="600"><tspan x="302.3125" y="360.004">WC 3</tspan></text>
        <text x="302.3125" y="373.296" text-anchor="middle" font-size="9" fill="#666">6.4 m²</text>
      
        <rect x="237.5625" y="387.8" width="129.5" height="77.69999999999999" fill="#fafafa" stroke="none" />
        
        <text x="302.3125" font-size="12" text-anchor="middle" font-weight="600"><tspan x="302.3125" y="421.646">Phòng thờ 1</tspan></text>
        <text x="302.3125" y="443.744" text-anchor="middle" font-size="9" fill="#666">9.6 m²</text>
      
        <rect x="237.5625" y="465.5" width="129.5" height="33.30000000000001" fill="#eef6ff" stroke="#60a5fa" stroke-width="1" stroke-dasharray="4,2" />
        
        <text x="302.3125" font-size="12" text-anchor="middle" font-weight="600"><tspan x="302.3125" y="482.474">Ban công 1</tspan></text>
        <text x="302.3125" y="489.476" text-anchor="middle" font-size="9" fill="#666">4.1 m²</text>
      
        <rect x="367.0625" y="114" width="32.375" height="388.5" fill="#fafafa" stroke="none" />
        
        <text x="383.25" font-size="10" text-anchor="middle" font-weight="600"><tspan x="383.25" y="247.23">Sảnh</tspan><tspan x="383.25" y="259.23">/</tspan><tspan x="383.25" y="271.23">Hành</tspan><tspan x="383.25" y="283.23">lang</tspan></text>
        <text x="383.25" y="393.71999999999997" text-anchor="middle" font-size="9" fill="#666">12.0 m²</text>
      
        <rect x="334.6875" y="502.5" width="64.75" height="129.5" fill="#f0f0f0" stroke="none" />
        <line x1="344.4" y1="518.6875" x2="389.725" y2="518.6875" stroke="#bbb" stroke-width="0.75" /><line x1="344.4" y1="534.875" x2="389.725" y2="534.875" stroke="#bbb" stroke-width="0.75" /><line x1="344.4" y1="551.0625" x2="389.725" y2="551.0625" stroke="#bbb" stroke-width="0.75" /><line x1="344.4" y1="567.25" x2="389.725" y2="567.25" stroke="#bbb" stroke-width="0.75" /><line x1="344.4" y1="583.4375" x2="389.725" y2="583.4375" stroke="#bbb" stroke-width="0.75" /><line x1="344.4" y1="599.625" x2="389.725" y2="599.625" stroke="#bbb" stroke-width="0.75" /><line x1="344.4" y1="615.8125" x2="389.725" y2="615.8125" stroke="#bbb" stroke-width="0.75" /><line x1="367.0625" y1="521.925" x2="367.0625" y2="612.575" stroke="#374151" stroke-width="1.2" /><path d="M 361.8825 607.3950000000001 L 367.0625 612.575 L 372.2425 607.3950000000001" fill="none" stroke="#374151" stroke-width="1.2" />
        <text x="348.9325" font-size="8" text-anchor="middle" font-weight="600"><tspan x="348.9325" y="549.79">Cầu</tspan><tspan x="348.9325" y="559.39">thang</tspan></text>
        <text x="348.9325" y="595.74" text-anchor="middle" font-size="9" fill="#666">8.0 m²</text>
      
        <rect x="237.5625" y="502.5" width="97.125" height="129.5" fill="#fafafa" stroke="none" />
        
        <text x="286.125" font-size="12" text-anchor="middle" font-weight="600"><tspan x="286.125" y="548.83">Không gian</tspan><tspan x="286.125" y="563.23">chưa phân bổ</tspan></text>
        <text x="286.125" y="595.74" text-anchor="middle" font-size="9" fill="#666">12.0 m²</text>
      
    <line x1="237.5625" y1="225" x2="367.0625" y2="225" stroke="#6b7280" stroke-width="1.5" /><line x1="367.0625" y1="114" x2="367.0625" y2="154.93125" stroke="#6b7280" stroke-width="1.5" /><line x1="367.0625" y1="184.06875" x2="367.0625" y2="225" stroke="#6b7280" stroke-width="1.5" /><line x1="237.5625" y1="336" x2="367.0625" y2="336" stroke="#6b7280" stroke-width="1.5" /><line x1="367.0625" y1="225" x2="367.0625" y2="265.93125" stroke="#6b7280" stroke-width="1.5" /><line x1="367.0625" y1="295.06875" x2="367.0625" y2="336" stroke="#6b7280" stroke-width="1.5" /><line x1="237.5625" y1="387.8" x2="367.0625" y2="387.8" stroke="#6b7280" stroke-width="1.5" /><line x1="367.0625" y1="336" x2="367.0625" y2="347.33125" stroke="#6b7280" stroke-width="1.5" /><line x1="367.0625" y1="376.46875" x2="367.0625" y2="387.8" stroke="#6b7280" stroke-width="1.5" /><line x1="237.5625" y1="465.5" x2="367.0625" y2="465.5" stroke="#6b7280" stroke-width="1.5" /><line x1="367.0625" y1="387.8" x2="367.0625" y2="412.08125" stroke="#6b7280" stroke-width="1.5" /><line x1="367.0625" y1="441.21875" x2="367.0625" y2="465.5" stroke="#6b7280" stroke-width="1.5" /><line x1="367.0625" y1="465.5" x2="367.0625" y2="467.58125" stroke="#6b7280" stroke-width="1.5" /><line x1="367.0625" y1="496.71875" x2="367.0625" y2="498.8" stroke="#6b7280" stroke-width="1.5" /><line x1="367.0625" y1="502.5" x2="368.68125" y2="502.5" stroke="#6b7280" stroke-width="1.5" /><line x1="397.81875" y1="502.5" x2="399.4375" y2="502.5" stroke="#6b7280" stroke-width="1.5" /><line x1="334.6875" y1="502.5" x2="334.6875" y2="632" stroke="#6b7280" stroke-width="1.5" /><line x1="237.5625" y1="114" x2="282.8875" y2="114" stroke="#111827" stroke-width="3" /><line x1="321.7375" y1="114" x2="399.4375" y2="114" stroke="#111827" stroke-width="3" /><line x1="399.4375" y1="114" x2="399.4375" y2="632" stroke="#111827" stroke-width="3" /><line x1="399.4375" y1="632" x2="237.5625" y2="632" stroke="#111827" stroke-width="3" /><line x1="237.5625" y1="632" x2="237.5625" y2="299.92499999999995" stroke="#111827" stroke-width="3" /><line x1="237.5625" y1="261.075" x2="237.5625" y2="114" stroke="#111827" stroke-width="3" />
    
    <line x1="368.68125" y1="502.5" x2="368.68125" y2="531.6375" stroke="#374151" stroke-width="1.5" />
    <path d="M 368.68125 531.6375 A 29.1375 29.1375 0 0 1 397.81875 502.5" fill="none" stroke="#9ca3af" stroke-width="1" stroke-dasharray="2,2" />
  
    <line x1="367.0625" y1="154.93125" x2="337.925" y2="154.93125" stroke="#374151" stroke-width="1.5" />
    <path d="M 337.925 154.93125 A 29.1375 29.1375 0 0 1 367.0625 184.06875" fill="none" stroke="#9ca3af" stroke-width="1" stroke-dasharray="2,2" />
  
    <line x1="367.0625" y1="265.93125" x2="337.925" y2="265.93125" stroke="#374151" stroke-width="1.5" />
    <path d="M 337.925 265.93125 A 29.1375 29.1375 0 0 1 367.0625 295.06875" fill="none" stroke="#9ca3af" stroke-width="1" stroke-dasharray="2,2" />
  
    <line x1="367.0625" y1="347.33125" x2="337.925" y2="347.33125" stroke="#374151" stroke-width="1.5" />
    <path d="M 337.925 347.33125 A 29.1375 29.1375 0 0 1 367.0625 376.46875" fill="none" stroke="#9ca3af" stroke-width="1" stroke-dasharray="2,2" />
  
    <line x1="367.0625" y1="412.08125" x2="337.925" y2="412.08125" stroke="#374151" stroke-width="1.5" />
    <path d="M 337.925 412.08125 A 29.1375 29.1375 0 0 1 367.0625 441.21875" fill="none" stroke="#9ca3af" stroke-width="1" stroke-dasharray="2,2" />
  
    <line x1="367.0625" y1="467.58125" x2="337.925" y2="467.58125" stroke="#374151" stroke-width="1.5" />
    <path d="M 337.925 467.58125 A 29.1375 29.1375 0 0 1 367.0625 496.71875" fill="none" stroke="#9ca3af" stroke-width="1" stroke-dasharray="2,2" />
  
    <line x1="282.8875" y1="114" x2="321.7375" y2="114" stroke="#2563eb" stroke-width="2.5" /><line x1="237.5625" y1="299.92499999999995" x2="237.5625" y2="261.075" stroke="#2563eb" stroke-width="2.5" />
    <text x="24" y="648" font-size="9" fill="#b45309">CẢNH BÁO: Phân bổ phòng theo tầng dùng heuristic mặc định (Requirement không có chi tiết phòng theo từng</text><text x="24" y="660" font-size="9" fill="#b45309">tầng): tầng trệt = phòng khách/bếp/1 WC, các tầng còn lại chia đều phòng ngủ/WC còn lại, phòng thờ/ban công</text><text x="24" y="672" font-size="9" fill="#b45309">(nếu có) đặt ở tầng trên cùng.</text><text x="24" y="684" font-size="9" fill="#b45309">CẢNH BÁO: Ghi nhận loại trừ (chưa cần xử lý hình học): phòng đọc sách.</text><text x="24" y="696" font-size="9" fill="#b45309">CẢNH BÁO: [Tầng 2] Phòng "wc-3" (wc) tỷ lệ khung hình 2.50:1 — ngoài khoảng ưu tiên (tối đa 1.8:1), vẫn trong</text><text x="24" y="708" font-size="9" fill="#b45309">giới hạn chấp nhận được.</text><text x="24" y="720" font-size="9" fill="#b45309">CẢNH BÁO: [Tầng 2] Phòng "wc-3" (wc) diện tích 6.40m² — ngoài khoảng ưu tiên (tối đa 6m²), vẫn trong giới hạn</text><text x="24" y="732" font-size="9" fill="#b45309">chấp nhận được.</text><text x="24" y="744" font-size="9" fill="#b45309">CẢNH BÁO: [Tầng 2] Phòng "balcony-1" (balcony) tỷ lệ khung hình 3.89:1 — ngoài khoảng ưu tiên (tối đa 3:1),</text><text x="24" y="756" font-size="9" fill="#b45309">vẫn trong giới hạn chấp nhận được.</text>
    <text x="24" y="772" font-size="8" fill="#b91c1c">Bản vẽ khái niệm sơ bộ — dựa trên thông tin và giả định đã cung cấp, cần kiến trúc sư/kỹ sư kiểm tra lại, KHÔNG dùng để thi</text><text x="24" y="783" font-size="8" fill="#b91c1c">công trực tiếp.</text>
  </svg>