<svg xmlns="http://www.w3.org/2000/svg" width="100%" viewBox="0 0 595 842" preserveAspectRatio="xMidYMid meet">
    <rect x="0" y="0" width="595" height="842" fill="#ffffff" />
    
    <text x="24" font-size="12" font-weight="700"><tspan x="24" y="36.32">Townhouse Demo — Tầng trệt</tspan></text>
    <text x="24" y="58" font-size="9" fill="#666">NOT TO SCALE — Mặt bằng tầng (Concept) — Lập ngày 20/7/2026</text>
  
    
      <line x1="233.8125" y1="88" x2="233.8125" y2="114" stroke="#bbb" stroke-width="0.5" />
      <line x1="403.1875" y1="88" x2="403.1875" y2="114" stroke="#bbb" stroke-width="0.5" />
      <line x1="233.8125" y1="88" x2="403.1875" y2="88" stroke="#666" stroke-width="0.6" />
      <text x="318.5" y="84" text-anchor="middle" font-size="9" fill="#333">5 m</text>
    
      <line x1="56" y1="114" x2="233.8125" y2="114" stroke="#bbb" stroke-width="0.5" />
      <line x1="56" y1="656" x2="233.8125" y2="656" stroke="#bbb" stroke-width="0.5" />
      <line x1="56" y1="114" x2="56" y2="656" stroke="#666" stroke-width="0.6" />
      <text x="0" y="0" text-anchor="middle" font-size="9" fill="#333" transform="translate(51, 385) rotate(-90)">16 m</text>
    
    
        <line x1="233.8125" y1="302.24137931034477" x2="369.3125" y2="302.24137931034477" stroke="#ccc" stroke-width="0.5" />
        <text x="301.5625" y="299.24137931034477" text-anchor="middle" font-size="8" fill="#999">4.0 m</text>
      
        <line x1="233.8125" y1="442.4137931034482" x2="369.3125" y2="442.4137931034482" stroke="#ccc" stroke-width="0.5" />
        <text x="301.5625" y="439.4137931034482" text-anchor="middle" font-size="8" fill="#999">4.0 m</text>
      
        <line x1="233.8125" y1="496.6137931034482" x2="369.3125" y2="496.6137931034482" stroke="#ccc" stroke-width="0.5" />
        <text x="301.5625" y="493.6137931034482" text-anchor="middle" font-size="8" fill="#999">4.0 m</text>
      
        <line x1="369.3125" y1="302.24137931034477" x2="403.1875" y2="302.24137931034477" stroke="#ccc" stroke-width="0.5" />
        <text x="386.25" y="299.24137931034477" text-anchor="middle" font-size="8" fill="#999">1.0 m</text>
      
        <line x1="335.4375" y1="512.5" x2="403.1875" y2="512.5" stroke="#ccc" stroke-width="0.5" />
        <text x="369.3125" y="509.5" text-anchor="middle" font-size="8" fill="#999">2.0 m</text>
      
        <line x1="233.8125" y1="512.5" x2="335.4375" y2="512.5" stroke="#ccc" stroke-width="0.5" />
        <text x="284.625" y="509.5" text-anchor="middle" font-size="8" fill="#999">3.0 m</text>
      
    
        <rect x="233.8125" y="114" width="169.375" height="196.24137931034477" fill="#fafafa" stroke="none" />
        
        <text x="318.5" font-size="12" text-anchor="middle" font-weight="600"><tspan x="318.5" y="192.89172413793105">Phòng khách</tspan></text>
        <text x="318.5" y="255.29379310344822" text-anchor="middle" font-size="9" fill="#666">29.0 m²</text>
      
        <rect x="233.8125" y="310.24137931034477" width="135.5" height="140.17241379310343" fill="#fafafa" stroke="none" />
        
        <text x="301.5625" font-size="12" text-anchor="middle" font-weight="600"><tspan x="301.5625" y="367.8268965517241">Bếp</tspan></text>
        <text x="301.5625" y="411.16551724137923" text-anchor="middle" font-size="9" fill="#666">16.6 m²</text>
      
        <rect x="233.8125" y="450.4137931034482" width="135.5" height="54.19999999999999" fill="#fafafa" stroke="none" />
        
        <text x="301.5625" font-size="12" text-anchor="middle" font-weight="600"><tspan x="301.5625" y="475.3297931034482">WC 1</tspan></text>
        <text x="301.5625" y="489.4377931034482" text-anchor="middle" font-size="9" fill="#666">6.4 m²</text>
      
        <rect x="233.8125" y="504.6137931034482" width="135.5" height="15.886206896551812" fill="#fafafa" stroke="none" />
        
        <text x="301.5625" font-size="8" text-anchor="middle" font-weight="600"><tspan x="301.5625" y="513.5305517241378">Không gian chưa phân bổ</tspan></text>
        <text x="301.5625" y="516.0518620689655" text-anchor="middle" font-size="9" fill="#666">1.9 m²</text>
      
        <rect x="369.3125" y="310.24137931034477" width="33.875" height="210.25862068965523" fill="#fafafa" stroke="none" />
        
        <text x="386.25" font-size="11" text-anchor="middle" font-weight="600"><tspan x="386.25" y="374.2996551724138">Sảnh</tspan><tspan x="386.25" y="387.4996551724138">/</tspan><tspan x="386.25" y="400.69965517241377">Hành</tspan><tspan x="386.25" y="413.89965517241376">lang</tspan></text>
        <text x="386.25" y="461.6275862068965" text-anchor="middle" font-size="9" fill="#666">6.2 m²</text>
      
        <rect x="335.4375" y="520.5" width="67.75" height="135.5" fill="#f0f0f0" stroke="none" />
        <line x1="345.6" y1="537.4375" x2="393.025" y2="537.4375" stroke="#bbb" stroke-width="0.75" /><line x1="345.6" y1="554.375" x2="393.025" y2="554.375" stroke="#bbb" stroke-width="0.75" /><line x1="345.6" y1="571.3125" x2="393.025" y2="571.3125" stroke="#bbb" stroke-width="0.75" /><line x1="345.6" y1="588.25" x2="393.025" y2="588.25" stroke="#bbb" stroke-width="0.75" /><line x1="345.6" y1="605.1875" x2="393.025" y2="605.1875" stroke="#bbb" stroke-width="0.75" /><line x1="345.6" y1="622.125" x2="393.025" y2="622.125" stroke="#bbb" stroke-width="0.75" /><line x1="345.6" y1="639.0625" x2="393.025" y2="639.0625" stroke="#bbb" stroke-width="0.75" /><line x1="369.3125" y1="540.825" x2="369.3125" y2="635.675" stroke="#374151" stroke-width="1.2" /><path d="M 363.8925 546.245 L 369.3125 540.825 L 374.7325 546.245" fill="none" stroke="#374151" stroke-width="1.2" />
        <text x="350.3425" font-size="8" text-anchor="middle" font-weight="600"><tspan x="350.3425" y="570.0699999999999">Cầu</tspan><tspan x="350.3425" y="579.67">thang</tspan></text>
        <text x="350.3425" y="618.06" text-anchor="middle" font-size="9" fill="#666">8.0 m²</text>
      
        <rect x="233.8125" y="520.5" width="101.625" height="135.5" fill="#fafafa" stroke="none" />
        
        <text x="284.625" font-size="12" text-anchor="middle" font-weight="600"><tspan x="284.625" y="569.11">Không gian</tspan><tspan x="284.625" y="583.51">chưa phân bổ</tspan></text>
        <text x="284.625" y="618.06" text-anchor="middle" font-size="9" fill="#666">12.0 m²</text>
      
    <line x1="233.8125" y1="310.24137931034477" x2="369.3125" y2="310.24137931034477" stroke="#6b7280" stroke-width="1.5" /><line x1="369.3125" y1="310.24137931034477" x2="371.00625" y2="310.24137931034477" stroke="#6b7280" stroke-width="1.5" /><line x1="401.49375" y1="310.24137931034477" x2="403.1875" y2="310.24137931034477" stroke="#6b7280" stroke-width="1.5" /><line x1="233.8125" y1="450.4137931034482" x2="369.3125" y2="450.4137931034482" stroke="#6b7280" stroke-width="1.5" /><line x1="369.3125" y1="310.24137931034477" x2="369.3125" y2="365.08383620689654" stroke="#6b7280" stroke-width="1.5" /><line x1="369.3125" y1="395.57133620689655" x2="369.3125" y2="450.4137931034482" stroke="#6b7280" stroke-width="1.5" /><line x1="233.8125" y1="504.6137931034482" x2="369.3125" y2="504.6137931034482" stroke="#6b7280" stroke-width="1.5" /><line x1="369.3125" y1="450.4137931034482" x2="369.3125" y2="462.2700431034482" stroke="#6b7280" stroke-width="1.5" /><line x1="369.3125" y1="492.7575431034482" x2="369.3125" y2="504.6137931034482" stroke="#6b7280" stroke-width="1.5" /><line x1="369.3125" y1="504.6137931034482" x2="369.3125" y2="520.5" stroke="#6b7280" stroke-width="1.5" /><line x1="335.4375" y1="520.5" x2="369.3125" y2="520.5" stroke="#6b7280" stroke-width="1.5" /><line x1="233.8125" y1="520.5" x2="335.4375" y2="520.5" stroke="#6b7280" stroke-width="1.5" /><line x1="369.3125" y1="520.5" x2="371.00625" y2="520.5" stroke="#6b7280" stroke-width="1.5" /><line x1="401.49375" y1="520.5" x2="403.1875" y2="520.5" stroke="#6b7280" stroke-width="1.5" /><line x1="335.4375" y1="520.5" x2="335.4375" y2="656" stroke="#6b7280" stroke-width="1.5" /><line x1="233.8125" y1="114" x2="255.83125" y2="114" stroke="#111827" stroke-width="3" /><line x1="296.48125" y1="114" x2="303.25625" y2="114" stroke="#111827" stroke-width="3" /><line x1="333.74375" y1="114" x2="403.1875" y2="114" stroke="#111827" stroke-width="3" /><line x1="403.1875" y1="114" x2="403.1875" y2="656" stroke="#111827" stroke-width="3" /><line x1="403.1875" y1="656" x2="233.8125" y2="656" stroke="#111827" stroke-width="3" /><line x1="233.8125" y1="656" x2="233.8125" y2="400.6525862068965" stroke="#111827" stroke-width="3" /><line x1="233.8125" y1="360.0025862068965" x2="233.8125" y2="114" stroke="#111827" stroke-width="3" />
    
    <line x1="303.25625" y1="114" x2="303.25625" y2="144.4875" stroke="#374151" stroke-width="1.5" />
    <path d="M 303.25625 144.4875 A 30.4875 30.4875 0 0 1 333.74375 114" fill="none" stroke="#9ca3af" stroke-width="1" stroke-dasharray="2,2" />
  
    <line x1="371.00625" y1="310.24137931034477" x2="371.00625" y2="340.72887931034484" stroke="#374151" stroke-width="1.5" />
    <path d="M 371.00625 340.72887931034484 A 30.4875 30.4875 0 0 1 401.49375 310.24137931034477" fill="none" stroke="#9ca3af" stroke-width="1" stroke-dasharray="2,2" />
  
    <line x1="369.3125" y1="365.08383620689654" x2="338.825" y2="365.08383620689654" stroke="#374151" stroke-width="1.5" />
    <path d="M 338.825 365.08383620689654 A 30.4875 30.4875 0 0 1 369.3125 395.57133620689655" fill="none" stroke="#9ca3af" stroke-width="1" stroke-dasharray="2,2" />
  
    <line x1="369.3125" y1="462.2700431034482" x2="338.825" y2="462.2700431034482" stroke="#374151" stroke-width="1.5" />
    <path d="M 338.825 462.2700431034482 A 30.4875 30.4875 0 0 1 369.3125 492.7575431034482" fill="none" stroke="#9ca3af" stroke-width="1" stroke-dasharray="2,2" />
  
    <line x1="371.00625" y1="520.5" x2="371.00625" y2="550.9875" stroke="#374151" stroke-width="1.5" />
    <path d="M 371.00625 550.9875 A 30.4875 30.4875 0 0 1 401.49375 520.5" fill="none" stroke="#9ca3af" stroke-width="1" stroke-dasharray="2,2" />
  
    <line x1="255.83125" y1="114" x2="296.48125" y2="114" stroke="#2563eb" stroke-width="2.5" /><line x1="233.8125" y1="400.6525862068965" x2="233.8125" y2="360.0025862068965" stroke="#2563eb" stroke-width="2.5" />
    <text x="24" y="672" font-size="9" fill="#b45309">CẢNH BÁO: Phân bổ phòng theo tầng dùng heuristic mặc định (Requirement không có chi tiết phòng theo từng</text><text x="24" y="684" font-size="9" fill="#b45309">tầng): tầng trệt = phòng khách/bếp/1 WC, các tầng còn lại chia đều phòng ngủ/WC còn lại, phòng thờ/ban công</text><text x="24" y="696" font-size="9" fill="#b45309">(nếu có) đặt ở tầng trên cùng.</text><text x="24" y="708" font-size="9" fill="#b45309">CẢNH BÁO: Ghi nhận loại trừ (chưa cần xử lý hình học): phòng đọc sách.</text><text x="24" y="720" font-size="9" fill="#b45309">CẢNH BÁO: [Tầng 0] Phòng "wc-1" (wc) tỷ lệ khung hình 2.50:1 — ngoài khoảng ưu tiên (tối đa 1.8:1), vẫn trong</text><text x="24" y="732" font-size="9" fill="#b45309">giới hạn chấp nhận được.</text><text x="24" y="744" font-size="9" fill="#b45309">CẢNH BÁO: [Tầng 0] Phòng "wc-1" (wc) diện tích 6.40m² — ngoài khoảng ưu tiên (tối đa 6m²), vẫn trong giới hạn</text><text x="24" y="756" font-size="9" fill="#b45309">chấp nhận được.</text>
    <text x="24" y="772" font-size="8" fill="#b91c1c">Bản vẽ khái niệm sơ bộ — dựa trên thông tin và giả định đã cung cấp, cần kiến trúc sư/kỹ sư kiểm tra lại, KHÔNG dùng để thi</text><text x="24" y="783" font-size="8" fill="#b91c1c">công trực tiếp.</text>
  </svg>